<svg xmlns="http://www.w3.org/2000/svg" viewBox="0 0 96 96" fill="none">
  <rect width="96" height="96" rx="48" fill="#84CC16"/>
  <circle cx="48" cy="48" r="42" fill="url(#g)" fill-opacity="0.26"/>
  <circle cx="48" cy="37" r="18" fill="#ECFCCB"/>
  <path d="M29 39c1-13 9-22 19-22s18 9 19 22c-4-5-9-8-19-8s-15 3-19 8Z" fill="#365314"/>
  <path d="M22 84c2-18 12-29 26-29s24 11 26 29H22Z" fill="#F7FEE7"/>
  <path d="M34 55c3 4 8 6 14 6s11-2 14-6" stroke="#1F2937" stroke-width="3.2" stroke-linecap="round"/>
  <circle cx="41" cy="39" r="2.4" fill="#1F2937"/>
  <circle cx="55" cy="39" r="2.4" fill="#1F2937"/>
  <path d="M27 76c8-8 15-12 21-12s13 4 21 12" stroke="#BEF264" stroke-width="5" stroke-linecap="round" opacity="0.8"/>
  <circle cx="68" cy="26" r="7" fill="#FFFFFF" fill-opacity="0.96"/>
  <path d="M66 26h4M68 24v4" stroke="#BEF264" stroke-width="2" stroke-linecap="round"/>
  <defs>
    <radialGradient id="g" cx="0" cy="0" r="1" gradientUnits="userSpaceOnUse" gradientTransform="translate(72 20) rotate(130) scale(62)">
      <stop stop-color="#FFFFFF"/>
      <stop offset="1" stop-color="#FFFFFF" stop-opacity="0"/>
    </radialGradient>
  </defs>
</svg>
